<svg height="512" viewBox="0 0 60 60" width="512" xmlns="http://www.w3.org/2000/svg"><g id="Page-1" fill="none" fill-rule="evenodd"><g id="020---Sending-File" fill="rgb(0,0,0)" fill-rule="nonzero"><path id="Shape" d="m55 0h-36c-2.7600532.00330612-4.9966939 2.23994685-5 5v17h-9c-2.76005315.0033061-4.99669388 2.2399468-5 5v28c.00330612 2.7600532 2.23994685 4.9966939 5 5h14c2.7600532-.0033061 4.9966939-2.2399468 5-5v-19h7v2.142c-1.7606851.4545933-2.9931852 2.0395884-3 3.858v1c0 .5522847.4477153 1 1 1h16c.5522847 0 1-.4477153 1-1v-1c-.0068148-1.8184116-1.2393149-3.4034067-3-3.858v-2.142h12c2.7600532-.0033061 4.9966939-2.2399468 5-5v-26c-.0033061-2.76005315-2.2399468-4.99669388-5-5zm-38 24-1.2 1.6c-.1888544.2518058-.4852427.4-.8.4h-6c-.3147573 0-.61114562-.1481942-.8-.4l-1.2-1.6zm-15 3c.00527745-1.4732564 1.07953782-2.7246532 2.535-2.953l2.065 2.753c.56800454.7536884 1.45624656 1.1978094 2.4 1.2h6c.9439012-.0015673 1.8324054-.4458194 2.4-1.2l2.066-2.753c1.455065.2287878 2.5288009 1.4800672 2.534 2.953v24c0 1.6568542-1.3431458 3-3 3h-14c-1.65685425 0-3-1.3431458-3-3zm17 31h-14c-1.65685425 0-3-1.3431458-3-3v-.026c.86038886.6618067 1.91453073 1.0223232 3 1.026h14c1.0854693-.0036768 2.1396111-.3641933 3-1.026v.026c0 .7956495-.3160705 1.5587112-.8786797 2.1213203-.5626091.5626092-1.3256708.8786797-2.1213203.8786797zm25-16h-14c0-1.1045695.8954305-2 2-2h10c1.1045695 0 2 .8954305 2 2zm-3-4h-8v-2h8zm17-7c0 1.6568542-1.3431458 3-3 3h-31v-7c-.0033061-2.7600532-2.2399468-4.9966939-5-5h-3v-17c0-1.65685425 1.3431458-3 3-3h36c1.6568542 0 3 1.34314575 3 3z" fill="#FFF"/><path id="Shape" d="m20 10c-.5522847 0-1 .4477153-1 1s.4477153 1 1 1c7.7285595.0082673 13.9917327 6.2714405 14 14 0 .5522847.4477153 1 1 1s1-.4477153 1-1c-.0104696-8.8322157-7.1677843-15.9895304-16-16z" fill="#FFF"/><path id="Shape" d="m20 14c-.5522847 0-1 .4477153-1 1s.4477153 1 1 1c5.5203344.0060624 9.9939376 4.4796656 10 10 0 .5522847.4477153 1 1 1s1-.4477153 1-1c-.0071648-6.624447-5.375553-11.9928352-12-12z" fill="#FFF"/><path id="Shape" d="m20 18c-.5522847 0-1 .4477153-1 1s.4477153 1 1 1c3.3123376.0033074 5.9966926 2.6876624 6 6 0 .5522847.4477153 1 1 1s1-.4477153 1-1c-.0049599-4.4162219-3.5837781-7.9950401-8-8z" fill="#FFF"/><path id="Shape" d="m7 49h10c1.1045695 0 2-.8954305 2-2v-9h-.009c.0033289-.2640959-.0989025-.5185945-.284-.707l-6-6c-.1885068-.1848264-.4430267-.2867064-.707-.283v-.01h-5c-1.1045695 0-2 .8954305-2 2v14c0 1.1045695.8954305 2 2 2zm6-14.586 2.586 2.586h-2.586zm-6-1.414h4v4c0 1.1045695.8954305 2 2 2h4v8h-10z" fill="#FFF"/></g></g></svg>